<svg width="360" height="96" viewBox="0 0 360 96" fill="none" xmlns="http://www.w3.org/2000/svg">
<rect x="1.5" y="1.5" width="357" height="93" rx="14.5" stroke="white" stroke-width="3"/>
<rect x="9" y="8" width="148" height="80" rx="8" fill="white"/>
<path d="M55.5981 59H51.3981L36.1181 35.28H35.9581C35.9848 35.76 36.0115 36.2933 36.0381 36.88C36.0915 37.4667 36.1315 38.1067 36.1581 38.8C36.1848 39.4667 36.2115 40.16 36.2381 40.88C36.2648 41.6 36.2781 42.32 36.2781 43.04V59H32.9581V30.44H37.1181L52.3581 54.08H52.5181C52.4915 53.76 52.4648 53.32 52.4381 52.76C52.4115 52.1733 52.3848 51.5333 52.3581 50.84C52.3315 50.12 52.3048 49.3867 52.2781 48.64C52.2515 47.8933 52.2381 47.2 52.2381 46.56V30.44H55.5981V59ZM95.3088 59H79.3488V30.44H95.3088V33.6H82.9488V42.52H94.5888V45.64H82.9488V55.84H95.3088V59ZM126.615 59H123.015V33.6H114.095V30.44H135.495V33.6H126.615V59Z" fill="black"/>
<path d="M187.33 59H183.73V33.6H174.81V30.44H196.21V33.6H187.33V59ZM216.045 37.16C216.445 37.16 216.871 37.1867 217.325 37.24C217.805 37.2667 218.218 37.32 218.565 37.4L218.125 40.64C217.778 40.56 217.391 40.4933 216.965 40.44C216.565 40.3867 216.178 40.36 215.805 40.36C214.978 40.36 214.191 40.5333 213.445 40.88C212.698 41.2267 212.031 41.72 211.445 42.36C210.858 42.9733 210.391 43.72 210.045 44.6C209.725 45.48 209.565 46.4667 209.565 47.56V59H206.045V37.56H208.925L209.325 41.48H209.485C209.938 40.68 210.485 39.96 211.125 39.32C211.765 38.6533 212.498 38.1333 213.325 37.76C214.151 37.36 215.058 37.16 216.045 37.16ZM248.488 37.56V59H245.608L245.088 56.16H244.928C244.475 56.9067 243.888 57.52 243.168 58C242.448 58.48 241.661 58.8267 240.808 59.04C239.955 59.28 239.061 59.4 238.128 59.4C236.421 59.4 234.981 59.1333 233.808 58.6C232.661 58.04 231.795 57.1867 231.208 56.04C230.621 54.8933 230.328 53.4133 230.328 51.6V37.56H233.888V51.36C233.888 53.0667 234.275 54.3467 235.048 55.2C235.821 56.0533 237.021 56.48 238.648 56.48C240.248 56.48 241.501 56.1867 242.408 55.6C243.341 54.9867 243.995 54.1067 244.368 52.96C244.768 51.7867 244.968 50.3733 244.968 48.72V37.56H248.488ZM259.935 37.56H263.695L268.335 49.76C268.601 50.48 268.841 51.1733 269.055 51.84C269.295 52.5067 269.508 53.16 269.695 53.8C269.881 54.4133 270.028 55.0133 270.135 55.6H270.295C270.455 54.9333 270.708 54.0667 271.055 53C271.401 51.9067 271.761 50.8133 272.135 49.72L276.495 37.56H280.295L271.055 61.96C270.548 63.2933 269.948 64.4533 269.255 65.44C268.588 66.4533 267.761 67.2267 266.775 67.76C265.815 68.32 264.641 68.6 263.255 68.6C262.615 68.6 262.055 68.56 261.575 68.48C261.095 68.4267 260.681 68.36 260.335 68.28V65.48C260.628 65.5333 260.975 65.5867 261.375 65.64C261.801 65.6933 262.241 65.72 262.695 65.72C263.521 65.72 264.228 65.56 264.815 65.24C265.428 64.9467 265.948 64.5067 266.375 63.92C266.801 63.36 267.161 62.6933 267.455 61.92L268.575 59.08L259.935 37.56ZM299.965 37.16C301.805 37.16 303.378 37.56 304.685 38.36C306.018 39.16 307.032 40.2933 307.725 41.76C308.445 43.2 308.805 44.8933 308.805 46.84V48.96H294.125C294.178 51.3867 294.792 53.24 295.965 54.52C297.165 55.7733 298.832 56.4 300.965 56.4C302.325 56.4 303.525 56.28 304.565 56.04C305.632 55.7733 306.725 55.4 307.845 54.92V58C306.752 58.48 305.672 58.8267 304.605 59.04C303.538 59.28 302.272 59.4 300.805 59.4C298.778 59.4 296.978 58.9867 295.405 58.16C293.858 57.3333 292.645 56.1067 291.765 54.48C290.912 52.8267 290.485 50.8133 290.485 48.44C290.485 46.0933 290.872 44.08 291.645 42.4C292.445 40.72 293.552 39.4267 294.965 38.52C296.405 37.6133 298.072 37.16 299.965 37.16ZM299.925 40.04C298.245 40.04 296.912 40.5867 295.925 41.68C294.965 42.7467 294.392 44.24 294.205 46.16H305.125C305.125 44.9333 304.938 43.8667 304.565 42.96C304.192 42.0533 303.618 41.3467 302.845 40.84C302.098 40.3067 301.125 40.04 299.925 40.04ZM301.525 28.36C301.845 28.9467 302.298 29.6133 302.885 30.36C303.498 31.08 304.125 31.8 304.765 32.52C305.432 33.2133 306.018 33.8133 306.525 34.32V34.76H304.045C303.352 34.3333 302.632 33.8133 301.885 33.2C301.138 32.56 300.405 31.88 299.685 31.16C298.965 31.88 298.245 32.5467 297.525 33.16C296.805 33.7733 296.098 34.3067 295.405 34.76H293.005V34.32C293.512 33.7867 294.072 33.1733 294.685 32.48C295.325 31.7867 295.938 31.08 296.525 30.36C297.112 29.6133 297.578 28.9467 297.925 28.36H301.525ZM300.285 66.04C299.725 66.04 299.232 65.8533 298.805 65.48C298.405 65.1067 298.205 64.5467 298.205 63.8C298.205 63.0267 298.405 62.4533 298.805 62.08C299.232 61.7333 299.725 61.56 300.285 61.56C300.845 61.56 301.325 61.7333 301.725 62.08C302.152 62.4533 302.365 63.0267 302.365 63.8C302.365 64.5467 302.152 65.1067 301.725 65.48C301.325 65.8533 300.845 66.04 300.285 66.04ZM332.583 37.16C335.143 37.16 337.077 37.7867 338.383 39.04C339.69 40.2667 340.343 42.2667 340.343 45.04V59H336.863V45.28C336.863 43.5467 336.477 42.2533 335.703 41.4C334.93 40.5467 333.717 40.12 332.063 40.12C329.69 40.12 328.05 40.7867 327.143 42.12C326.237 43.4533 325.783 45.3733 325.783 47.88V59H322.263V37.56H325.103L325.623 40.48H325.823C326.303 39.7333 326.89 39.12 327.583 38.64C328.303 38.1333 329.09 37.76 329.943 37.52C330.797 37.28 331.677 37.16 332.583 37.16Z" fill="white"/>
</svg>
